<?xml version="1.0" encoding="utf-8"?>
<!-- Generator: Adobe Illustrator 28.3.0, SVG Export Plug-In . SVG Version: 6.00 Build 0)  -->
<svg version="1.1" id="レイヤー_1" xmlns="http://www.w3.org/2000/svg" xmlns:xlink="http://www.w3.org/1999/xlink" x="0px"
	 y="0px" viewBox="0 0 400 400" style="enable-background:new 0 0 400 400;" xml:space="preserve">
<style type="text/css">
	.st0{opacity:0.85;stroke:#040000;stroke-width:1.0151;stroke-miterlimit:10;}
	.st1{fill:#FFFFFF;}
	.st2{fill:none;}
	.st3{clip-path:url(#SVGID_00000085934375031337287620000003342941563461911983_);}
</style>
<rect x="-2.14" y="-1.45" class="st0" width="404" height="404"/>
<g>
	<g>
		<g>
			<g>
				<path class="st1" d="M200.41,65.58c32.78,0,64.35,12.21,88.9,34.38c24.74,22.35,40.26,53.03,43.69,86.39
					c3.69,35.8-6.68,70.91-29.19,98.84c-22.48,27.9-54.38,45.3-89.83,49.01c-4.63,0.48-9.32,0.73-13.94,0.73
					c-32.79,0-64.36-12.21-88.91-34.38c-24.74-22.35-40.26-53.03-43.69-86.39c-3.69-35.81,6.68-70.91,29.19-98.84
					c22.48-27.9,54.38-45.3,89.83-49.01C191.08,65.82,195.77,65.58,200.41,65.58L200.41,65.58 M200.4,49.45
					c-5.16,0-10.38,0.27-15.62,0.82c-82.19,8.59-141.92,82.71-133.39,165.55c7.98,77.55,72.94,135.25,148.65,135.25
					c5.16,0,10.38-0.27,15.62-0.82c82.19-8.59,141.92-82.71,133.39-165.55C341.06,107.14,276.1,49.44,200.4,49.45L200.4,49.45z"/>
			</g>
			<g>
				<ellipse class="st2" cx="200.21" cy="200.25" rx="139.6" ry="140.68"/>
			</g>
			<g>
				<path class="st1" d="M291.54,20.88c-0.1,0.27-11.2,22.47-25.73,49.86c-14.53,27.39-35.82,64.73-35.92,64.99
					c-0.5,0.93-1.41,1.06-2.12,0.4l-7.47-6.91c-0.71-0.66-0.91-1.86-0.4-2.66c0.1-0.27,20.28-38.66,34.81-66.06
					c14.63-27.39,26.63-48.67,26.74-48.8c0.5-0.93,1.41-1.06,2.12-0.53l7.57,7.05C291.74,18.76,291.94,19.95,291.54,20.88z"/>
				<path class="st1" d="M317.77,20.88c-0.1,0.27-11.2,22.47-25.73,49.86c-14.53,27.39-35.82,64.73-35.92,64.99
					c-0.5,0.93-1.41,1.06-2.12,0.4l-7.47-6.91c-0.71-0.66-0.91-1.86-0.4-2.66c0.1-0.27,20.28-38.66,34.81-66.06
					c14.63-27.39,26.63-48.67,26.74-48.8c0.5-0.93,1.41-1.06,2.12-0.53l7.57,7.05C317.97,18.76,318.17,19.95,317.77,20.88z"/>
			</g>
			<ellipse class="st2" cx="200.21" cy="200.25" rx="131.63" ry="132.66"/>
			<g>
				<defs>
					<ellipse id="SVGID_1_" cx="200.85" cy="200.77" rx="134.82" ry="135.87"/>
				</defs>
				<clipPath id="SVGID_00000022538014586388105710000013046904853944174504_">
					<use xlink:href="#SVGID_1_"  style="overflow:visible;"/>
				</clipPath>
				<g style="clip-path:url(#SVGID_00000022538014586388105710000013046904853944174504_);">
					<g>
						<g>
							<path class="st1" d="M190.31,293.63c0.03,1.47-0.08,2.65-0.45,3.58l-12.45,27.48c-0.29,0.62-0.83,0.97-1.32,0.73
								c-0.38-0.25-7.48-4.7-19.14-16.84c-12.67-10.61-16.11-17.12-20.47-27.84c2.77,22.36,4.91,39.78,4.94,40.07
								c0.03,0.29,0.03,0.29,0.03,0.29c0.12,1.16,0.01,2.35-0.13,3.25c-0.26,0.91-0.69,1.25-1.15,1.3l-34.82,3.64
								c-0.92,0.1-1.8-1.58-2.15-3.89c-0.06-0.58-6.29-54.34-11.61-111.72c-5.69-62.05-8.4-115.58-8.46-116.16
								c-0.06-1.76,0.36-3.27,1-3.93c0.66-0.36,16.06-11.68,38.92-11.71c28.66-0.35,46.86,29.22,54.06,87.87
								c0.21,2.04,0.5,3.77,0.71,5.81c3.17,30.84,1.11,57.23-5.61,74.7c1.96,6.56,4.21,13.68,6.36,18.74
								c4.98,12.13,10.67,20.94,10.7,21.23C189.81,291.04,190.16,292.18,190.31,293.63z M145.82,163.9
								c-3.72-36.17-20.56-46.08-28.53-49.14c1.68,23.55,4.33,51.67,6.26,72.86l1.74,19.27c0.28,2.69,0.59,5.77,0.95,9.24
								c0.36,3.46,0.75,7.31,1.19,11.54c10.82-10.08,21.55-28.31,18.63-61.46C145.98,165.44,145.9,164.67,145.82,163.9z"/>
						</g>
					</g>
					<g>
						<path class="st1" d="M326.11,239.08l1.64,15.98c0.12,1.15-1.18,2.31-2.79,2.47c-0.2,0.02-30.51,3.48-68.68,7.47
							c-37.97,3.97-67.94,6.81-68.14,6.83c-1.82,0.04-3.12-0.69-3.24-1.84l-1.64-15.98c-0.12-1.15,0.98-2.29,2.59-2.45
							c0.4-0.04,30.45-4.06,68.42-8.03c38.17-3.99,68.4-6.28,68.8-6.32C324.69,237.05,325.99,237.93,326.11,239.08z M329.33,270.32
							l2.53,24.62c0.12,1.15-1,2.14-2.59,2.45c-0.4,0.04-30.46,3.91-68.64,7.9c-37.97,3.97-68.18,6.4-68.58,6.44
							c-1.62,0.02-2.92-0.71-3.04-1.87l-2.53-24.62c-0.13-1.3,0.98-2.29,2.79-2.47l68.28-7.43l68.54-6.87
							C327.7,268.31,329.19,269.03,329.33,270.32z"/>
					</g>
					<g>
						<path class="st1" d="M250.15,250.26c-9.83,1.03-18.94,0.22-27.31-2.43c-8.37-2.65-15.74-6.7-22.09-12.16
							c-6.36-5.46-11.46-11.9-15.31-19.34c-3.85-7.43-6.21-15.37-7.07-23.81c-0.89-8.62-0.18-16.97,2.11-25.05
							c2.3-8.08,6-15.49,11.1-22.24c5.1-6.75,11.46-12.28,19.07-16.6c7.61-4.32,16.33-6.99,26.16-8.02
							c8.38-0.88,16.61-0.23,24.7,1.94c8.09,2.17,15.47,5.71,22.14,10.62c6.67,4.92,12.18,11.02,16.52,18.31
							c4.34,7.29,7,15.66,7.97,25.11c0.7,6.79,0.24,12.82-1.38,18.09c-1.62,5.27-4.37,9.45-8.23,12.55
							c-3.87,3.1-8.76,4.95-14.68,5.57c-3.55,0.37-6.95,0.03-10.18-1.02c-3.24-1.05-6.16-2.6-8.76-4.65
							c-2.3,2.65-5.03,4.82-8.17,6.49c-3.14,1.67-6.49,2.7-10.04,3.07c-5.74,0.6-11.16-0.27-16.28-2.61
							c-5.12-2.34-9.36-5.77-12.72-10.29c-3.36-4.52-5.34-9.62-5.92-15.31c-0.61-5.96,0.27-11.48,2.64-16.55
							c2.38-5.07,5.83-9.28,10.36-12.63c4.53-3.35,9.67-5.32,15.4-5.92c5.92-0.62,11.41,0.25,16.49,2.59
							c5.07,2.35,9.29,5.75,12.65,10.22c3.36,4.47,5.35,9.69,5.96,15.65l0.71,6.88c0.11,1.1,0.46,2.04,1.05,2.81
							c0.58,0.77,1.31,1.35,2.18,1.72c0.87,0.37,1.75,0.51,2.67,0.42c1.82-0.19,3.19-0.96,4.11-2.31c0.92-1.35,1.48-3.05,1.68-5.11
							c0.2-2.06,0.18-4.24-0.05-6.53c-0.5-6.63-2.23-12.5-5.19-17.61c-2.97-5.12-6.72-9.38-11.26-12.8
							c-4.54-3.42-9.6-5.88-15.18-7.39c-5.59-1.5-11.29-1.95-17.12-1.34c-6.65,0.69-12.58,2.55-17.79,5.55
							c-5.21,3-9.56,6.77-13.05,11.31c-3.49,4.54-6.03,9.58-7.62,15.13c-1.59,5.55-2.08,11.3-1.47,17.26
							c0.6,5.87,2.25,11.38,4.94,16.52c2.69,5.14,6.21,9.6,10.55,13.36c4.34,3.77,9.39,6.58,15.15,8.43
							c5.76,1.85,11.91,2.44,18.47,1.76l8.6-0.9l2.1,20.37L250.15,250.26z M244.72,197.55c2.27-0.24,4.22-1.04,5.82-2.42
							c1.61-1.37,2.81-3.05,3.62-5.04c0.81-1.98,1.1-4.03,0.89-6.14c-0.24-2.29-0.95-4.33-2.15-6.11c-1.2-1.77-2.72-3.17-4.57-4.18
							c-1.85-1.01-3.92-1.4-6.19-1.16c-2.19,0.23-4.08,1.03-5.69,2.4c-1.61,1.37-2.81,3.05-3.62,5.04
							c-0.81,1.99-1.09,4.13-0.86,6.42c0.22,2.11,0.92,4.06,2.12,5.83c1.19,1.78,2.72,3.17,4.57,4.18
							C240.52,197.39,242.54,197.78,244.72,197.55z"/>
					</g>
				</g>
			</g>
		</g>
	</g>
</g>
</svg>
