<?xml version="1.0" encoding="UTF-8"?>
<svg id="_レイヤー_2" data-name="レイヤー 2" xmlns="http://www.w3.org/2000/svg" xmlns:xlink="http://www.w3.org/1999/xlink" viewBox="0 0 500.4 181.53">
  <defs>
    <style>
      .cls-1 {
        clip-path: url(#clippath);
      }

      .cls-2 {
        fill: none;
      }

      .cls-2, .cls-3, .cls-4 {
        stroke-width: 0px;
      }

      .cls-3 {
        fill: #231815;
      }

      .cls-4 {
        fill: #fff;
      }
    </style>
    <clipPath id="clippath">
      <circle class="cls-2" cx="80.34" cy="100.9" r="71.33"/>
    </clipPath>
  </defs>
  <g id="_レイヤー_1-2" data-name="レイヤー 1">
    <g>
      <g>
        <g>
          <path class="cls-3" d="m207.39,71.37h.52c2.75,0,5.15.52,6.19,1.46l-1.55,8.77h-28.53l1.55-8.77c1.54-.95,3.87-1.46,6.79-1.46h.43l6.17-34.98h-6.96c-.54,2.58-1.48,4.98-3.4,7.56h-9.88l3.27-18.56h33.52l-8.11,45.98Zm11.03-45.98h15.98l-3.27,18.56h-9.88c-1.09-2.58-1.1-4.98-.82-7.56h-3.95l1.94-11Z"/>
          <path class="cls-3" d="m238.26,63.04c-.82,4.64-.48,9.54,9.15,9.54,3.09,0,9.39-.6,14.46-2.06l-1.74,9.88c-5.2,1.72-11.68,2.41-17.18,2.41-18.74,0-20.73-9.63-19.13-18.74,1.74-9.88,8.7-21.57,23.91-22.52-3.84,6.19-8.38,15.38-9.46,21.49Zm12.55-21.49c8.79.34,16.44,3.78,14.04,17.36-.5,2.84-1.2,5.33-1.83,7.48h-22c-.18-.95-.12-2.23.11-3.52.24-1.38.82-3.7,1.41-5.07h8.51l.26-1.46c.56-3.18-1.59-4.13-4.26-4.13-.69,0-1.39.09-2.09.17,1.42-3.18,3.43-6.79,5.86-10.83Z"/>
          <path class="cls-3" d="m282.15,62.69c-1.47,8.34,2.84,9.71,8.08,9.71,3.61,0,10.74-1.46,14.16-2.84l-1.83,10.4c-2.42,1.03-9.61,2.84-16.4,2.84-16.76,0-20.62-7.82-18.62-19.16,1.88-10.66,9.22-20.63,23.9-22-3.87,6.36-8.39,15.9-9.3,21.06Zm12.41-21.14c5.07,0,10.34.34,14.48,1.72l-2.61,14.78h-9.54c-1.15-1.29-1.72-2.92-1.72-5.33-.93-.09-2.13-.09-2.65-.09-1.2,0-2.59.09-4.01.34,2.27-5.07,4.75-9.37,6.06-11.43Z"/>
          <path class="cls-3" d="m334.15,22.22l-8.91,50.53c1.19.09,2.66.52,3.71,1.38l-1.32,7.48h-22.6l1.32-7.48c1.47-1.03,3.68-1.38,5.16-1.46l7.06-40.05c-2.29-.17-3.93-.6-5.07-1.46l1.58-8.94h19.08Zm-1.1,22.34c2.72-1.8,6.29-3.01,10.16-3.01,7.73,0,12.07,3.7,10.52,12.46l-3.29,18.65c1.6.17,3.22.77,3.87,1.46l-1.32,7.48h-21.83l1.32-7.48c1.46-.95,2.91-1.38,4.21-1.46l2.56-14.52c.64-3.61-1.76-4.12-3.48-4.12-1.38,0-2.98.34-4.59,1.2l1.88-10.66Z"/>
        </g>
        <g>
          <path class="cls-3" d="m198.95,135.35c1.69.17,2.7.77,3.45,1.38l-1.55,8.77h-24.06l1.55-8.77c.4-.34,2.75-1.46,5.76-1.46h.26l6.3-35.75c-2.75,0-4.76-.77-5.5-1.46l1.55-8.77h20.37l-8.12,46.06Zm6.97-22.95h2.84c2.92,0,5.05-.34,6.66-1.2.99-1.2,2.07-3.95,2.45-6.1.7-3.95-1.58-5.16-5.79-5.16h-3.95l1.88-10.66h7.82c8.34,0,18.02,1.12,15.6,14.87-1.29,7.3-6.18,14.09-13.84,17.1l7.27,13.84c3.15.17,4.56.95,5.38,1.63l-1.55,8.77h-25.35l1.55-8.77c.78-.52,2.07-1.03,3.49-1.29l-6.24-12.89,1.79-10.14Z"/>
          <path class="cls-3" d="m272.01,129.51h-16.41l-3.16,5.76h.6c2.15,0,4.55.52,5.76,1.46l-1.55,8.77h-25.01l1.55-8.77c1.63-.95,3.59-1.38,6.1-1.46l24.44-43.57,3.21,15.9-5.7,10.4h7.82l2.35,11.52Zm-5.03-40.22h15.21l9.6,45.98c2.56.09,4.38.52,5.59,1.46l-1.55,8.77h-27.93l1.55-8.77c1.71-.95,4.2-1.38,6.87-1.46l-9.34-45.98Z"/>
          <path class="cls-3" d="m317.38,135.35c2.55.17,4.04.95,4.66,1.38l-1.55,8.77h-22.17l1.55-8.77c1.44-.86,3.95-1.46,6.02-1.46h.09l7.51-35.75c-3.42-.09-5.36-.77-6.1-1.46l1.55-8.77h18.13l-9.67,46.06Zm23.22,8.68h-13.66l-2.54-28.02,5.57-26.73h6.1l4.53,54.74Zm1.12-22.43l14.21-32.31h27.07l-1.55,8.77c-1.25.77-3.42,1.38-6.62,1.46l-5.19,35.75c3.08.09,4.99.94,5.67,1.46l-1.55,8.77h-24.66l1.55-8.77c.2-.17,2.29-1.29,4.9-1.46l4.28-29.13-16.35,36.7-1.76-21.23Z"/>
          <path class="cls-3" d="m403.29,111.2h14.61l-1.92,10.91h-14.61l-4.12,23.38h-20.37l1.55-8.77c1.07-.69,3.27-1.46,6.02-1.46l6.3-35.75h-.09c-2.66,0-4.59-.77-5.41-1.46l1.55-8.77h20.37l-3.86,21.92Zm-1.18,23.29h12.2c.6-2.92,1.41-5.59,3.63-8.42h9.88l-3.42,19.42h-24.24l1.94-11Zm7.97-45.21h24.24l-3.12,17.7h-9.88c-.97-2.32-1.1-4.47-.88-6.7h-12.29l1.94-11Z"/>
          <path class="cls-3" d="m447.86,135.27h.52c3.18,0,4.85.77,5.59,1.46l-1.55,8.77h-23.46l1.55-8.77c.49-.34,2.75-1.46,5.76-1.46h.26l6.3-35.75c-2.32,0-4.45-.6-5.5-1.46l1.55-8.77h17.1l-8.11,45.98Zm11.03-45.98h5.24l19.57,56.21h-16.33l-12.18-35.24,3.7-20.97Zm19.06,30.34l3.55-20.11h-.6c-2.66,0-4.33-.77-5.07-1.46l1.55-8.77h23.03l-1.55,8.77c-.49.34-2.75,1.46-5.76,1.46h-.26l-7.38,41.85-7.51-21.74Z"/>
        </g>
        <g>
          <path class="cls-3" d="m277.17,167.32c0,2.95.48,7.73,7.25,7.73,3.08,0,6.51-.61,10.21-2.04v6.38c-3.52,1.52-7.04,1.95-10.73,1.95-9.73,0-14.46-5.04-14.46-13.2,0-5.73,1.48-14.68,12.2-16.24-3.26,6.17-4.47,11.73-4.47,15.42Zm6.25-15.59h1c4.73,0,8.21.65,9.82,1.22v9.29h-4.95c-.83-1.17-1.04-2.48-1.13-3.6-1.04-.17-2.48-.39-4.26-.39-.87,0-2.3.09-3.65.52.96-2.69,2.17-5.21,3.17-7.04Z"/>
          <path class="cls-3" d="m305.44,160.54c-1.91,4.69-2.78,8.08-2.78,10.86,0,3.69,1.78,4.39,3.82,4.39.35,0,.87-.04,1.17-.13-.7,2.3-1.35,4.21-2.04,5.69-6.78-.09-10.25-3.21-10.25-9.51s3.13-10.81,10.08-11.29Zm1.78,20.76c1.91-4.69,2.78-8.08,2.78-10.86,0-3.69-1.78-4.39-3.82-4.39-.35,0-.87.04-1.17.13.69-2.3,1.35-4.21,2.04-5.69,6.78.09,10.25,3.21,10.25,9.51s-3.13,10.81-10.08,11.29Z"/>
          <path class="cls-3" d="m318.73,176.96c.65-.52,1.74-.7,2.48-.74v-9.86h-.04c-.43,0-1.69-.17-2.43-.74v-4.52h7.95c1.35,1.95,1.48,5.78,1.48,8.25v6.91c.61.04,1.39.26,2,.7v3.78h-11.42v-3.78Zm13.2,0c.65-.48,1.35-.7,2-.74v-7.34c0-1.82-1.26-2.08-2.13-2.08-.78,0-1.52.26-2.26.61,0-1.78-.35-3.87-.69-4.91,1.52-1.17,3.21-2,5.6-2,3.91,0,6.43,1.87,6.43,6.3v9.42c.83.09,1.69.39,2.09.74v3.78h-11.03v-3.78Z"/>
          <path class="cls-3" d="m352.99,176.22c1.95,0,2.78.3,3.39.74v3.78h-12.81v-3.78c.52-.39,1.35-.74,2.48-.74v-10.16h-2.69v-4.21c.52-.39,1.43-.7,2.69-.74v-1.69c0-3,1.39-9.29,9.47-9.29,1.35,0,3.6.09,5.17.56v7.38h-4.13c-.61-.61-1-1.39-1.26-2.39h-.13c-.43,0-1.17.04-1.69.39-.26.43-.48,1.3-.48,2.61v17.55Zm1.43-15.11h3.82v4.95h-3.82v-4.95Z"/>
          <path class="cls-3" d="m366.24,171.36c0,2.35.61,4.82,5.47,4.82,1.56,0,4.69-.3,7.12-1.04v4.99c-2.48.87-5.69,1.22-8.47,1.22-9.47,0-11.34-4.86-11.34-9.47,0-4.99,2.48-10.9,10.08-11.38-1.39,3.13-2.87,7.77-2.87,10.86Zm4.43-10.86c4.47.17,8.64,1.91,8.64,8.77,0,1.43-.13,2.69-.26,3.78h-11.12c-.17-.48-.26-1.13-.26-1.78,0-.7.09-1.87.26-2.56h4.3v-.74c0-1.61-1.17-2.08-2.52-2.08-.35,0-.7.04-1.04.09.43-1.61,1.13-3.43,2-5.47Z"/>
          <path class="cls-3" d="m381.48,176.96c.83-.56,1.87-.7,2.48-.74v-9.86h-.17c-.43,0-1.52-.17-2.3-.74v-4.52h7.95c1.35,1.82,1.48,6.21,1.48,8.34v6.78h.26c1.61,0,2.52.52,2.78.74v3.78h-12.46v-3.78Zm12.64-9.82c-.61.09-1.13.26-1.78.65-.09-2.13-.22-3.17-.57-4.78,1.82-1.65,3.52-2.08,5.69-2.08.87,0,1.87.09,2.52.22v8.21h-4.73c-.56-.78-.91-1.39-1.13-2.22Z"/>
          <path class="cls-3" d="m408.79,171.36c0,2.35.61,4.82,5.47,4.82,1.56,0,4.69-.3,7.12-1.04v4.99c-2.48.87-5.69,1.22-8.47,1.22-9.47,0-11.34-4.86-11.34-9.47,0-4.99,2.48-10.9,10.08-11.38-1.39,3.13-2.87,7.77-2.87,10.86Zm4.43-10.86c4.47.17,8.64,1.91,8.64,8.77,0,1.43-.13,2.69-.26,3.78h-11.12c-.17-.48-.26-1.13-.26-1.78,0-.7.09-1.87.26-2.56h4.3v-.74c0-1.61-1.17-2.08-2.52-2.08-.35,0-.7.04-1.04.09.43-1.61,1.13-3.43,2-5.47Z"/>
          <path class="cls-3" d="m424.04,176.96c.65-.52,1.74-.7,2.48-.74v-9.86h-.04c-.43,0-1.69-.17-2.43-.74v-4.52h7.95c1.35,1.95,1.48,5.78,1.48,8.25v6.91c.61.04,1.39.26,2,.7v3.78h-11.42v-3.78Zm13.2,0c.65-.48,1.35-.7,2-.74v-7.34c0-1.82-1.26-2.08-2.13-2.08-.78,0-1.52.26-2.26.61,0-1.78-.35-3.87-.69-4.91,1.52-1.17,3.21-2,5.6-2,3.91,0,6.43,1.87,6.43,6.3v9.42c.83.09,1.69.39,2.09.74v3.78h-11.03v-3.78Z"/>
          <path class="cls-3" d="m456.65,171.18c0,4.21,2.3,4.91,4.95,4.91,1.82,0,5.3-.74,6.91-1.43v5.26c-1.13.52-4.6,1.43-8.03,1.43-8.47,0-11.12-3.95-11.12-9.68,0-5.39,2.82-10.42,10.12-11.12-1.39,3.21-2.82,8.03-2.82,10.64Zm4.39-10.68c2.56,0,5.26.17,7.47.87v7.47h-4.82c-.7-.65-1.13-1.48-1.35-2.69-.48-.04-1.09-.04-1.35-.04-.61,0-1.3.04-2,.17.69-2.56,1.56-4.73,2.04-5.78Z"/>
          <path class="cls-3" d="m478.19,171.36c0,2.35.61,4.82,5.47,4.82,1.56,0,4.69-.3,7.12-1.04v4.99c-2.48.87-5.69,1.22-8.47,1.22-9.47,0-11.34-4.86-11.34-9.47,0-4.99,2.48-10.9,10.08-11.38-1.39,3.13-2.87,7.77-2.87,10.86Zm4.43-10.86c4.47.17,8.64,1.91,8.64,8.77,0,1.43-.13,2.69-.26,3.78h-11.12c-.17-.48-.26-1.13-.26-1.78,0-.7.09-1.87.26-2.56h4.3v-.74c0-1.61-1.17-2.08-2.52-2.08-.35,0-.7.04-1.04.09.43-1.61,1.13-3.43,2-5.47Z"/>
        </g>
        <g>
          <path class="cls-3" d="m177.8,175.48c9.24-6.8,13.07-9.31,13.07-11.64,0-2.15-2.01-2.97-4.62-2.97-1.54,0-2.76.18-3.51.57v3.47h-4.94v-8.66c2.33-.86,5.41-1.47,9.02-1.47,4.91,0,10.24,2.01,10.24,7.3,0,4.55-3.44,7.45-11.82,13.57h7.66v-3.76h4.94v9.31h-20.05v-5.73Z"/>
          <path class="cls-3" d="m199.46,168.29c0-8.13,4.44-13.43,11.24-13.43s11.24,5.19,11.24,13.43-4.44,13.25-11.24,13.25-11.24-5.23-11.24-13.25Zm17.69,0c0-4.58-2.51-7.38-6.45-7.38s-6.45,2.69-6.45,7.38c0,4.37,2.51,7.38,6.45,7.38s6.45-2.9,6.45-7.38Z"/>
          <path class="cls-3" d="m223.59,175.48c9.24-6.8,13.07-9.31,13.07-11.64,0-2.15-2.01-2.97-4.62-2.97-1.54,0-2.76.18-3.51.57v3.47h-4.94v-8.66c2.33-.86,5.41-1.47,9.02-1.47,4.91,0,10.24,2.01,10.24,7.3,0,4.55-3.44,7.45-11.82,13.57h7.66v-3.76h4.94v9.31h-20.05v-5.73Z"/>
          <path class="cls-3" d="m254.21,175.41h2.79c.61,0,.86-.25.86-1.04v-1h-12.64v-4.26l11.78-14h5.73v13.64h3.33v4.62h-3.33v1c0,.75.25,1.04.86,1.04h2.47v5.8h-11.85v-5.8Zm3.65-6.66v-8.13l-6.66,8.13h6.66Z"/>
        </g>
      </g>
      <g>
        <g>
          <path class="cls-3" d="m129.38,5.34c-.05.14-6.01,11.97-13.81,26.57-7.8,14.59-14.3,25.86-14.36,26-.27.5-.76.57-1.14.21l-4.01-3.68c-.38-.35-.49-.99-.22-1.42.05-.14,5.96-11.97,13.76-26.57C117.46,11.85,123.9.52,123.96.45c.27-.5.76-.57,1.14-.28l4.06,3.75c.33.28.43.92.22,1.42Z"/>
          <path class="cls-3" d="m143.46,5.34c-.05.14-6.01,11.97-13.81,26.57-7.8,14.59-14.3,25.86-14.36,26-.27.5-.76.57-1.14.21l-4.01-3.68c-.38-.35-.49-.99-.22-1.42.05-.14,5.96-11.97,13.76-26.57,7.85-14.59,14.3-25.93,14.35-26,.27-.5.76-.57,1.14-.28l4.06,3.75c.33.28.43.92.22,1.42Z"/>
        </g>
        <circle class="cls-3" cx="80.34" cy="100.9" r="80.34"/>
        <circle class="cls-4" cx="80.34" cy="100.9" r="74.95"/>
        <circle class="cls-3" cx="80.34" cy="100.9" r="70.68"/>
        <g class="cls-1">
          <g>
            <path class="cls-4" d="m74.77,149.65c.02.77-.04,1.39-.24,1.88l-6.59,14.42c-.15.32-.44.51-.7.38-.2-.13-3.96-2.47-10.13-8.84-6.7-5.57-8.52-8.99-10.83-14.62,1.46,11.74,2.6,20.88,2.61,21.03l.02.15c.06.61,0,1.23-.07,1.71-.14.48-.36.66-.61.68l-18.42,1.91c-.49.05-.95-.83-1.14-2.04-.03-.31-3.33-28.52-6.14-58.65-3.01-32.57-4.44-60.68-4.47-60.98-.03-.92.19-1.72.53-2.06.35-.19,8.5-6.13,20.59-6.15,15.16-.18,24.79,15.34,28.6,46.13.11,1.07.27,1.98.38,3.05,1.68,16.19.59,30.04-2.97,39.21,1.04,3.44,2.23,7.18,3.37,9.84,2.63,6.37,5.64,10.99,5.66,11.15.29.43.48,1.03.56,1.79Zm-23.54-68.1c-1.97-18.99-10.87-24.19-15.09-25.8.89,12.36,2.29,27.12,3.31,38.25l.92,10.11c.15,1.41.31,3.03.5,4.85l.63,6.06c5.73-5.29,11.4-14.86,9.86-32.26l-.13-1.21Z"/>
            <path class="cls-4" d="m128.67,32.95c-.04.11-2.31,5.05-8.07,16.34-5.76,11.29-10.63,20.05-10.66,20.16-.2.38-.62.48-.98.26l-5.64-1.64c-.36-.22-.5-.67-.3-1.01.04-.11,4.34-9.23,10.1-20.52,5.81-11.3,10.38-16.59,10.42-16.65.2-.38.62-.48.4-.48l5.69,1.68c.88.35-.81,1.47-.97,1.85Z"/>
            <path class="cls-4" d="m146.61,121.01l.87,8.39c.06.6-.63,1.21-1.48,1.3-.11.01-16.14,1.83-36.34,3.92s-35.94,3.58-36.05,3.59c-.96.02-1.65-.36-1.71-.97l-.87-8.39c-.06-.6.52-1.2,1.37-1.29.21-.02,16.11-2.13,36.2-4.21,20.2-2.09,36.19-3.3,36.4-3.32.85-.09,1.54.37,1.61.98Zm1.7,16.4l1.34,12.92c.06.6-.53,1.12-1.37,1.29-.21.02-16.12,2.05-36.31,4.15-20.09,2.08-36.07,3.36-36.28,3.38-.86.01-1.54-.37-1.61-.98l-1.34-12.92c-.07-.68.52-1.2,1.48-1.3l36.12-3.9,36.26-3.61c.85-.09,1.64.29,1.71.97Z"/>
            <path class="cls-4" d="m106.42,126.88c-5.2.54-10.02.11-14.45-1.28-4.43-1.39-8.32-3.52-11.69-6.38-3.36-2.86-6.06-6.25-8.1-10.15-2.04-3.9-3.28-8.07-3.74-12.5s-.1-8.91,1.12-13.15c1.21-4.24,3.17-8.13,5.87-11.67,2.7-3.54,6.06-6.45,10.09-8.71,4.02-2.27,8.64-3.67,13.84-4.21,4.43-.46,8.79-.12,13.07,1.02,4.28,1.14,8.19,3,11.72,5.58,3.53,2.58,6.44,5.78,8.74,9.61,2.3,3.83,3.7,8.22,4.22,13.18.37,3.57.13,6.73-.73,9.5-.86,2.77-2.31,4.96-4.36,6.59-2.05,1.63-4.64,2.6-7.77,2.92-1.88.19-3.67.02-5.39-.54-1.71-.55-3.26-1.37-4.63-2.44-1.22,1.39-2.66,2.53-4.32,3.41-1.66.88-3.43,1.41-5.31,1.61-3.03.31-5.91-.14-8.61-1.37-2.71-1.23-4.95-3.03-6.73-5.4-1.78-2.37-2.82-5.05-3.13-8.04s.14-6.03,1.4-8.69c1.26-2.66,3.08-4.87,5.48-6.63,2.4-1.76,5.11-2.79,8.15-3.11s6.04.13,8.72,1.36c2.68,1.23,4.91,3.02,6.69,5.37,1.78,2.35,2.83,5.09,3.15,8.22l.37,3.61c.06.58.24,1.07.55,1.48.31.41.69.71,1.15.9.46.2.93.27,1.41.22.96-.1,1.69-.5,2.17-1.21.49-.71.78-1.6.89-2.68.11-1.08.1-2.22-.03-3.43-.26-3.48-1.18-6.56-2.75-9.25-1.57-2.69-3.55-4.93-5.96-6.72-2.4-1.8-5.08-3.09-8.03-3.88-2.95-.79-5.97-1.02-9.06-.7-3.52.36-6.65,1.34-9.41,2.91-2.76,1.58-5.06,3.56-6.91,5.94-1.85,2.38-3.19,5.03-4.03,7.94-.84,2.91-1.1,5.93-.78,9.06.32,3.08,1.19,5.97,2.62,8.67,1.42,2.7,3.29,5.04,5.58,7.02,2.3,1.98,4.97,3.45,8.02,4.43,3.05.97,6.3,1.28,9.77.92l4.55-.47,1.11,10.69-4.55.47Zm-2.87-27.67c1.2-.12,2.23-.55,3.08-1.27.85-.72,1.49-1.6,1.92-2.65.43-1.04.58-2.12.47-3.23-.12-1.2-.5-2.27-1.14-3.21-.63-.93-1.44-1.66-2.42-2.2-.98-.53-2.07-.73-3.28-.61s-2.16.54-3.01,1.26c-.85.72-1.49,1.6-1.92,2.65-.43,1.04-.58,2.17-.45,3.37.11,1.11.49,2.13,1.12,3.06.63.93,1.44,1.67,2.42,2.2.98.53,2.05.74,3.2.62Z"/>
            <path class="cls-4" d="m116.56,29.69c-.04.11-2.31,5.05-8.07,16.34-5.76,11.29-10.63,20.05-10.66,20.16-.2.38-.62.48-.98.26l-5.64-1.64c-.36-.22-.5-.67-.3-1.01.04-.11,4.34-9.23,10.1-20.52,5.81-11.3,10.38-16.59,10.42-16.65.2-.38.62-.48.4-.48l5.69,1.68c.88.35-.81,1.47-.97,1.85Z"/>
          </g>
        </g>
      </g>
    </g>
  </g>
</svg>